<svg width="113" height="114" viewBox="0 0 113 114" fill="none" xmlns="http://www.w3.org/2000/svg">
<rect x="7" y="7" width="100" height="100" rx="8" fill="white"/>
<rect width="8" height="8" rx="4" transform="matrix(1 0 0 -1 17 23)" fill="#0B0636"/>
<rect width="8" height="8" rx="4" transform="matrix(1 0 0 -1 41 23)" fill="#EDC1D1"/>
<rect width="8" height="8" rx="4" transform="matrix(1 0 0 -1 29 23)" fill="#CE7A9A"/>
<path d="M7 31H107V99C107 103.418 103.418 107 99 107H15C10.5817 107 7 103.418 7 99V31Z" fill="#CE7A9A"/>
<rect x="17" y="42" width="53" height="6" rx="3" fill="white"/>
<rect x="17" y="58" width="20" height="6" rx="3" fill="white"/>
<rect x="41" y="58" width="12" height="6" rx="3" fill="white"/>
<rect x="57" y="58" width="39" height="6" rx="3" fill="#EDC1D1"/>
<rect x="17" y="74" width="58" height="6" rx="3" fill="#EDC1D1"/>
<rect x="17" y="90" width="28" height="6" rx="3" fill="white"/>
</svg>
