<svg width="113" height="114" viewBox="0 0 113 114" fill="none" xmlns="http://www.w3.org/2000/svg">
<rect x="23" y="32" width="83" height="64" rx="8" fill="#CE7A9A"/>
<path d="M83.0927 64.483C84.0102 63.1902 84.5229 61.6539 84.5657 60.0692L84.9537 45.7128C84.9842 44.5859 84.7558 43.4671 84.2861 42.4424L80.75 34.7272C80.1655 33.452 81.0973 32 82.5 32V32L98 32C102.418 32 106 35.5817 106 40V88C106 92.4183 102.418 96 98 96H31C26.5817 96 23 92.4183 23 88V81V81C23 79.8514 24.2087 79.1044 25.2361 79.618L38.7801 86.39C40.226 87.113 41.8571 87.381 43.4583 87.1586L57.7547 85.173C58.5799 85.0584 59.382 84.8156 60.1322 84.4534L71.6457 78.8952C72.8621 78.308 73.91 77.4223 74.6917 76.3208L83.0927 64.483Z" fill="#EDC0D1"/>
<rect x="33" y="58" width="63" height="6" rx="3" fill="#EDC0D1"/>
<rect x="60" y="74" width="17" height="6" rx="3" fill="#EDC1D1"/>
<rect x="33" y="74" width="23" height="6" rx="3" fill="#EDC0D1"/>
<rect x="10" y="12" width="76" height="76" rx="38" stroke="white" stroke-width="6"/>
<rect width="36.261" height="6" rx="3" transform="matrix(-0.707107 -0.707107 -0.707107 0.707107 102.591 100.348)" fill="white"/>
</svg>
